<svg id="Graphic_elements" data-name="Graphic elements" xmlns="http://www.w3.org/2000/svg" viewBox="0 0 1200 1200"><defs><style>.cls-1{fill:#6c5d53;}.cls-2{fill:#dcd6be;}.cls-3{fill:#514846;}.cls-4{fill:#f04230;}.cls-5{fill:#f90;}.cls-6{fill:#634c2c;}</style></defs><g id="g7744"><g id="g7762"><g id="g7774"><path id="path7533" class="cls-1" d="M366.42,1145.39c-79.48,15.44-89.31-40.78-162.5-46.41l-69.48-89.49-5.4-4.37-19.25-18.69-14-20.65,22.08-26,51.1-58,18.86-18.58,42.58-33.32,21.24-13.56,17.71-12.39,22.16-21.23,29.71-26.52,15.89-8.59,30.78-14.25,84-26.51c14.51-9.73,30.47-21.82,35.48-26.86,36.9,15.49,88.33,8.79,122.77,2.14,12.39,12.17,25.24,18.08,50.66,23.31,13.36,2.76,36.63,12.66,51.72,22s35,21.3,44.32,26.56a180.54,180.54,0,0,1,30.25,22.46c7.36,7.09,23.83,17.29,36.61,22.67,85.84,55.06,155,87.16,245,142.52l33.32,23,84.08,101c-373.09,102-810.06,81.77-819.71,79.79Z"/><path id="path10" class="cls-2" d="M610.56,714.51c-1.09,0-2,.68-1.91,2.35a38.49,38.49,0,0,0,4.28,4c10,9.59,12.42,24.14,22.8,33.46,10.49,6.68,10.39,28.43,26.44,24.22,9.49-.41,16.31,8.22,20.79,15.64-2.81,3.91-8.89,1.81-13,1.07,3.82,9.89,12.66,17.37,20.43,24.32,2.48,6.81.59,16.93,8.64,20.54,6,4,15.64-9.23,19.37.4,5.49,22.13,41.52,19.71,39.06,44.93,18.07,12.7,32.52,32.61,47.4,50.17,9.83,9,22.16,15.22,30.23,26.12,15.79-.35,27,13.79,36.9,24.28,5.47,10.49-9.56.4-13.36,5.12,14.94,22.16,43.65,26.16,64.2,41.69,20.28,17.81,47.51,21.28,68.13,38.39,5.32-4.9,8.84-3.24,8.6,5.12,2.35,1.11,4.88,1.83,7.16,3.12,3,5.43,8.86,6.49,13.94,9.7.52-2.09,1.1-4.16,1.71-6.21,1.65-6.26,4.12,1.7,4.84,4.38,1.69,7.26,9,9.76,15.08,12.38,3.26-1.3,8.8-2.09,8.81-6.53-3.86-2.75-8.72,5-12.67-.41-.45-8.34,12.64-6.52,13.9-14.6-7-13.06-21.57-19.56-32.53-28.89-3.09-3.66-7.38,1.7-10.94-.63-12.28-12.85-29.59-22-41.35-34.23,9.18-8.11,21,12.35,30.28,15.21,2.34-.86-2.08-7.34,2.53-6.74,3.7,7.68,11.52,18.15,19.24,8.91,2.73,7.48,12.68,6.26,14.79,14.38,4.8-3.37,6.12,1.54,7.75,5.3a16.06,16.06,0,0,1,9.77,5.53c7.32-3.6,6.21-7.15-.92-9.14-6.44-7.57-16.56-11.21-21.62-20,10.9-.17,20.23,10.62,29.55,16,4-1.52,7.08-5.54,6-9.92-18.3-15-37-29.39-57.22-41.78-5.78-.83-1.94-7.9,1.82-7.18,10.24,1.7,13.5,16.48,24.22,16.17-.23-4-3.11-9,2.89-9.63,9.42-5.34,6.63,11.6,16.14,9.78-.46,6.05,5.67,16.4,12.17,13.61.31-2,.59-4,1-5.93,3.37-7.45,5.75,5,6.68,8.32,8,3.71,11.43,16.17,21.5,13.67,2.86-1.89,4-5.46,5.59-8.33.39-3,.52-6.13.82-9.1-2.06-3.82-7.51-15.85.92-12.51,5.85,6.67,14.18,10.15,20.4,16.07,6.92,3.31,15.89,4.52,21,12.08,3.31,1.16,6.1-.27,7.44-3.44-3.14-8.85-15.7-8.82-18.21-17.64-11.5-6.78-21-18.82-34.8-20-3.56-3.81-6.45-8.77-11.72-10.42-14.87-4.78-23.49-19.38-37.62-25.53-6.91-2.75-15.5-5.92-17.33-14.15,4.74-1.29,9.66-.13,14.5,0-.65-4.87-5.13-7.93-7.74-11.8C1022.42,909,998.6,905.45,980,893.66c-15.56-9.31-35-12.41-47.33-26.7-5.89-5.21-9.57-13.81-17.35-16.43,1.43,7.9,11.29,11.4,12.29,18.91-17.36-.91,10,16.19,12.86,21.17-17,3.16-37.78-6.56-45.65-22.45-7.85-.77-15.85-2.89-20.45-10.3-12.52-.66-20.56-10.85-30.28-17.27-6.46-2.19-16.32,0-19-8.26-13.5-7.41-28.29-13.42-41.63-21.42-3.44-2.28-7.47-12.2-11.57-7,3.69,7,7.28,17.83,16.18,17.24,21.81,8.65,33.65,30.28,51.9,43.79,3.31-1.88,3.26-7.83,9.13-6.16,9.51-3,9.06,10.4,14.09,14.88,7.28,2.56,2-6.22,6.08-7.76,8.46,2.24,7.14,13,12.62,18.29,3.29,4.75,12.58,14.49,9.6,2.93,11.8-6.59,8,15.69,18.58,15.31,6.72.38-3.18-9.66,3.7-9.41,14.07,6,28.3,21.07,44.33,12.49,12.21,11.49,26.26,21.2,37.41,33.87,6.14,12.32,21.32,14.86,31.07,23.68-7.09,1.94-14.91-2.75-22.41-1.78C988,948.54,967,944.14,947.65,937.81c-6.7-2.95-11.68,7.39-17.14-.53C919.12,926,904.39,924.62,892,915.44c-31-8.93-47.84-39.83-77-52.12-5.47-15.47-25.17-18.45-31-34.22-8.82-14.09-29.12-10.29-39.85-20.39,2.93-9.56,17.47-3.68,22.42-5.62-13.14-20.43-39.31-28.24-53.38-48.43a98.94,98.94,0,0,0-52.08-24.72c-6.21-1.38-12.53-2.22-18.81-3.15a55.07,55.07,0,0,1-29.25-11.07,3.75,3.75,0,0,0-2.51-1.21Zm-136.75,6.22c-3.53,2.66-7.7,4.37-11.06,7.28-9.23,8.19-24.2,8.24-31.95,18.55,2.54,5.85-4.05,10.59-7.48,14.57-11.28,8.25-17.54,22-30.7,27.81-2.94,9.33-12.59-4.58-15,3.69-4.91,14.58-20.36,20.74-33,27-5.6,5.76-16.55,11.75-20.33,1-1.45-16,8.76-30.16,14.07-44.75,1.2-1.75-.92-1.89-1.57-.56-10.61,20.48-25.94,41.63-49.15,47.51-13,7.81-20.85,20.15-24.87,34.4-10.16,7.56-27.88,15.26-27.44,30.83-19,10.7-36.62,25.4-56.8,32.88-18.89,3.48-32.84,19-51.59,22.51-4.51,1.24-14.47,3.21-10.2,9.87,3.07,4.91-8.77,7.08-3.21,10.53,17.44-7.19,34.51-16,49.1-28,1.37-1.53,2.32.52,3.34,1.35,8.12,2.25,10.07-13.82,19.85-9.5,3.39,4.8,0,9.9-2.26,14.27,3.87,7.3,4.25,15.94,8.84,22.9,3.26,4.54-3.41,12.31-6.54,5.34-3.45-11.35-19.66-9.21-22.35-21-5.17.42-11.1,4.17-11.95,9.59a30,30,0,0,1,4,9.5c11.44-5.28,17.18,6.83,24.21,13.28,9.65,1,29.06,7,22.66,19.51-7.36,1.94-14.71-9.62-22.71-6.68-6.84,4.76-10.3-6.9-17.58-6.09l-2.13-.66c-6.79,5.88-13.1-1.72-18.88-5.26,4.93,8.53,9.66,17.45,9.74,27.64-7.26-.83-14.85-4-19.27-10-4.93-6.65-1.69,7-.11,10.17,19.68,3,32.72,21.06,52.06,25.89-5.63-8.08-25.08-16.4-22.59-30.91,23,14,49.93,11.7,74.6,19.4,14.52-2.46,22.47,9.6,32.76,17.55,3.08,10.19,22.83,8.28,18.35,21.35-4,8.7-14.82-.28-20.9-1.74-9.63-4.78,2.37,10.18-6.4,5-2.86-.3-7.79-2.9-8,1.67,7.6,4.43,15.54,8.25,23,13,7.37-12.21,20.67,4.85,30.31,5.47,2-5.42,6.62-13.37,13.86-10.64,9.23,5.55,14.53,15.86,24.75,20.1,3.33,14.71,18.86,20,30.47,27,3.93,1.67,5.58-1.1,5.59-4.24-4.74-4.21-13.45-6.94-14-14.17-2.11-2.83-8.86-11.12,0-8.37,11.52,9.44,27.21,13.14,35,27.23,7.32,5.86,17.27,9,25.09,1.84,6.89-11.84,21.72-14.78,29.79-25.55-13.13-4.47-27.29-1.9-40.35,1.58,2.84-9.44,7.61-21.3,14.43-28.33,8.43,9.35,18.71,16.63,29.7,22.81,6.91-6.79,13.94-18.86,24.84-18.12,4.05-.26,6.41,2.53,7.48,6.14,5.8-5.3,13.94-9.09,21.14-4.11,19.59,2.1,24.61-20.69,36.12-31.46,1.29-2.66,3.68-3,6.52-2a9.44,9.44,0,0,0,4.86-2.08c-2.88-10.48-7.12-24.56-20.2-24.26-9.26-8.37-9.69-22.59-17.73-31.9-5.18-4.66-8.76-11.58-11.64-17.54,3.84-10,11.36,3.87,16.6,5.41,11.39-7.64,16.62,8.23,23.7,14.5-.12,6.35-8.8-2.39-9.07,3.83l1.22,1.81c3.85,2.21,7.24,7.41,11.49,7.49,5.77-6.64,12,3.59,12.1,9.14-5.07-2.45-12-2.39-10.92,4.93,6.49,8.24,5.17,19.49,16.22,24,10.75-6.29,23.91-5.18,36.08-7.67,11.55,5,12.79,20.4,16.82,28.83,2.88-8.08,14.53,5.16,12-6.53-3.71-12.41-21.32-22.37-18.69-34.88,12.17-2.23,13.37,18.92,25.79,17.77,4.87-.13,7.73,10.56,11.91,6.42,5.11-11.44,14.9,1.87,16.8,8.37,9,12.54,23,20.93,39,19.4,2.69-6.85,5.28.75,8.25,2.81,6.38-13.75,13.08,7.41,22.16,5.5,2.74-2.74-1.52-9,3.84-9.14,7-2.91,2.06,14.29,8.19,9.2,4.5-11.1,4.75,11.22,13.71,5.55,1.85,14.64,18.05,3.52,15-7.07,3.48-1.27,10.46,1.32,14-3.29-3-9.53-17.71-6.79-20.06-17.6-3.89-3.37-2.17-13,4.23-10.2,5.59,3.34,8.08,9.82,10.23,15.65,7.15-.74,8.75,6.31,14.22,9.39,5-6.09,10.38,6.37,13.6,1.57,1.5-9.33,14,1.27,13.38,8.08,13-1.85,16.71,16.4,30.33,14.1,5.49,6.57,15.82,23.57,22.68,21.38,2.9-10.87-11.8-11-14.57-19.73-21.34-5-26.55-28.39-42.18-40.76-3.58-1.64-2.88-10.25,1.31-6.26,5.51,9.11,15.38,14.52,23,21.09,6.13-10.29,18.28,1.64,19.73,10.63,8-3-1-7.94-1.87-13.06a6.71,6.71,0,0,1,9.5.06c2.49,2.13,7.61,6.13,9.06.84-15.82-18.76-39.37-29.17-55.53-48-4.12-2.63-8.89-7.63-.41-9.34-2.73-3.3-7.23-4.15-10.91-6-4.23,7-11.08-1.66-15.15-4.65-5.12-5.69-14.41-9-13.83-17.71-6.32,0-8.63-4.48-7.08-9.8-4-.92-4.91,5.83-9.21,4.47-9.5-4.76-14-15.08-21.83-21.75-14-9.78-25.75-22.3-37.74-34.3-7.29-13.69-26.32-15.56-31.45-30.61-15.48-14.79-27.8-32.66-41.29-49.3-.62-13.29-13.81-22.13-21.42-32.46-5.87,3.22,7.39,7.29,4.16,12.39-2.85,6.39,1.41,13.06-1.65,19.69.94,7.69,12.25,4.1,15.24,10.64,8.93,13.2,23.81,21.9,27.93,38.14,4.85,8.12-15.1-1.81-7.88,7,9,13.4,17.22,27.69,28.71,39.28,7.57-1,7.52,9.13,13.52,11.4,12.3-5.86,26.63,1.92,32.14,15,6.51,7,19.09,10.89,18.64,22.55,12.44,0,11.46,18.84,23.7,20.92,7.48.62,15.73,16.41,3.8,14.76-5.36-9.38-16.84-13.17-26.33-16.74-2.42-6.67-8-10.42-12.35-15.51-11.19-12.06-29.38-17.25-37.59-33.32-3.08-7.09-10.06,2.85-14.82-2.73-10.84-.11,1.53,29.12,4.29,13.53,3.14,1.17,8,1.63,8.66,5.59,4.48,4.39,6.35,10,8.26,15.75,13.72,3.12,19.82,16.2,26.12,27.44,9.43-1.86,12.34,6.82,10.38,14.64-6.59-2.26-14.64-13.57-23.21-11.34-12.6-11.76-19.17-26.23-32-37.41-1.63,1.38-2.73,3.92-5.13,3.95-9.42-4.06-19.56-8.75-30.41-6.5-7.78,7.64-21.14,5.41-30,1.66C622,964.79,609.8,949.55,595.14,937c-17.63-4.38-11.82-25.84-23.89-34.42-4.59-21.19-28.45-28.92-34.55-49.18-6.05-12.84-28.63-21.07-20-37.92-4.69-7-13.32-11.85-21.17-15.69-3-1.73-5.35-6.36-2.48-9.2,7.23-8.25,9.95-20.21,13.19-29.45-1.82.66-3.66,1.31-5.49,2-11.26,8.06-19.62,18.34-26.22,30.56-12.1-6.77-5.23,12-12.94,15.9-7.41,16.5-23.36,28.07-33.21,43.7-9.24,12.39-3.67,27.76-4.5,41.66-8.14,17.8-31.23,27.15-32.79,48.65,6.58,5.72,5.83-13.2,14.27-8.19C405,943.12,399.48,950,395,956c-7.48,5.91-1.94,16.27-4.32,24.23s-6.1,15.5-8.11,23.66c-.81,3.9,0,7.85.09,11.79-4.31-1.89-8.06-1.7-9.69,3.31-6.06-2-3.86-14.32-11.55-10.95-6.78,3.19-17.13-5.29-20.79,3.24-4.26,7.07-3.89,17-7.18,23.35-11.65-4.33-9.25-24.53-21.66-29.51-4.7-1.41-12.68-2.94-11.41-9.45,16.74-19.41,34.29-38.2,53.81-54.8,9.25-9.32,12-22.18,17.9-33.4,11.06-14.89,14.71-35,28.85-47.38,9.59,3.06-4.13,17.61-2.69,22,4-1.47,9.86-1.87,10.55-7.12a14.87,14.87,0,0,1,2.42-6.63c7.67-10.28-9.31-12.52-2.14-23.48,4.35-23.48,14.43-44,22.73-66.42.61-13.39,14.67-18,20.73-28.35,6.29-9.89,21.55-16.5,21.27-29.36Zm-46.09,1c-4.94.12-11.76,4-16.3,2.91,2.89,6.69-5.49,11.59-7.39,17,1.61,5.71,8.77,1.6,10.6-1.76,5-6.54,14.93-7.75,17.77-16a5,5,0,0,0-4.68-2.13Zm205.53,9.46c13.75,2,27.62,7.4,40,13.45-.4,9.77,13.71,11.47,7.1,22-3.78,8.21-6.93-7.41-12.71-7.66-15-.89-22.53-15.26-36.45-18.72-5.59-2.45-2.41-7.74,2.11-9Zm62.13,25.32c6.11,0,9.83,5.48,9.06,11.87-4.6-1.74-16.71-5.9-10.31-11.8a10.59,10.59,0,0,1,1.25-.07ZM263.09,807.91c-1.66.05-5.13,2-6.07,3.17-21.69,20.53-46.21,37.71-70.42,55-3.83,12.92-14.44,21.2-25.67,28.55a27.61,27.61,0,0,0-8.07,8.22c.9,10.57,9.29-8,16.32-3.85,9.32,7.6,12.94-9.27,21-11.58,11.23-12.71,24.7-23.24,35.83-36,15.08-10.88,26.07-26.28,37.14-41,1.25-1.89.9-2.53-.1-2.5Zm54.17,8.9c6.18-.1,4,14.86,12.11,15.84,9.89,1,5,21-4.19,16.1-11.17-1.43,1.64,15.19-8,17.81-10.3-1.79-7.84,11.9-16.44,13.07-13.66,3.15-11.18,20.1-18.55,28.91-8.41,1.14-14.85,8.7-10.31,17.05,2.09,8.07-13.57-2.25-10.49,8.37.27,6.56-6.83,9.72-12.31,9.83-3.12-10.71-9.07-20.1-11.55-31.08-3.24-1.4-3,1.92-3.59,4.52a131.13,131.13,0,0,1-3.34,12.89c4.18,9.27,1.66,21,10.9,28.27.78,9.48-12.64,11-12.51,19.21.15,3.38-4.05,1.68-4.25-.82-2.56-7.94-13.26-10.22-13.48-19.13-10.52-.71-13.12-13.36-13.52-21.75-13.68.29-5.57-15,2.28-16.3,15.16-11.17,31.93-20,50.25-24.34,8.93-10.46,24.32-17.13,37.37-13.86,4.29-9.77,11-18.32,11.28-29.3,5.32-10.6,13.46-21.9,13.92-33.51a8.7,8.7,0,0,1,4.42-1.79Zm158.31.11c6.39.47,2.22,16.14,11.46,13.46,1.71-3.82,9-9.93,7.08-.57-7.47,10.14-16,20.29-27.32,26.24-.29-13.33,8.77-25.27,8.13-39.12a3.53,3.53,0,0,1,.65,0Zm-102,9.36c2.58.06.76,5.38-.24,7.32,1.39,14.17-7.65,25.51-11.6,37.81-9.41,1.5-8.78,21-19.3,17.52-3.13-15,.68-32.92,7.11-46.95,8.93-.44,13.28-10.77,21.47-14.8a5.26,5.26,0,0,1,2.56-.9Zm484.27,3.91c-5.38,4.77,5.76,6.54,6.62,11.28,8.39,15.4,27.53,15.19,39.53,25.32,3-3.21,5-12.4,1.46-17.71-14.86-9.25-35.62-3.55-47.61-18.89ZM735.57,842.57c9.61.38,18.43,4.18,23.33,12.88,3.13,5.2,6-2.63,9.46-1,8.11,11,13.25,27.67,25,34.33-6.8-10.87,14.29-11.15,9.49-1,1.42,8.07,13.23,3.47,17.41,9.8,15.63,16.39,33.17,30,50.95,43.85,2.62,6.46,8,19.79,16.12,12.43,19.58,12.73,45.9,23.63,52.18,48.13-6.9,3.4-11.76-7.5-19-8.18-11.7-2.26-7.75-15.1-16.17-20.54-5.67-10.32-18.95-7.61-28-12.41-10.69,8.94-21.45-7.8-27.36-16-20.6-16-51-24.19-59.09-51.57-5.76-3.66.37,8.4-4.17,5.21-17.08-10.09-20.35-31-37.39-40.52-3.64-4.49-18.14-9.79-12.67-15.42ZM571.84,867.13a5,5,0,0,0-.84.08c-4.26,7.91,10.15,12.22,8,20.77.61,2.69,3,15.76,5.12,10,5.22.66,2.16,10.75,7.63,10-.3-8.64-.94-17.4-2.91-25.83-9.87,2.89-8.66-15.22-17-15Zm-124.71,1c11.52-.12,3.51,26.71-6.78,19.17.82-6.15-.87-16.27,6.22-19.14l.56,0ZM335.78,889.91c3.3,2.72,4.46,14.42-2.45,15.4-.26,10.4-12.91,11.15-15.22,19.53-4.92-1.15-8.74,1.59-6.5,6.26-2.78,2.64-5.41-4.44-9.53-1.12.86-4.81,2.66-10.16,7.87-11.67,13-5.15,11.66-25.81,25.83-28.39ZM240.4,935.13c5.4.11,2,10.54,1.44,14.86-5.28-1.38-9.37-13-2.65-14.74a6.17,6.17,0,0,1,1.21-.13Zm-148.55,22a6.11,6.11,0,0,0-1.61.32c-8.87,1.15-1.47,11.26,4.3,11.23l1.49-.5c.49-3.93.49-11.27-4.18-11ZM452,973.77c7.19-.11.33,12.66,5.66,16.8,6.19,10,.85,18.56-9,18.33-14.43,9.34-14.85,30.47-30.35,38.62a5.26,5.26,0,0,1-7.7-4c7.31-16.16,13.7-32.72,25.24-46.59,7-6.62,2.95-23.05,14.56-23a8.77,8.77,0,0,1,1.63-.21Zm-95.13,6.57c-2.65.47-5.58,2-3.89,5.08,3,5.87,3.8,16.26,11,17.74,0-8.27.3-17.27-7.08-22.82Zm291,13c10.12.4,1.69,20.54,14.41,20.86a36.34,36.34,0,0,1,1-5.18c-.48-4.62,5.15-10.32,9.2-9.31,4.73,10,26.27,16.52,13.3,29.18-7.9,5.94-15.26-2.15-21.16-3.64a3.48,3.48,0,0,0-3.53,2c1.75,2.91,2.08,8.3-1.8,9.64-11.38-6.37-16.87-18.21-26.82-26.1-9.26-.31-10.51-17.33-.42-15.09,5.13,3.45,12.1,6.25,14.82-2.28a9.23,9.23,0,0,1,1,0ZM462,1016.17c6.8.22,2.2,17.12,12.33,13.07,3.62,7.32,14.34,8.06,18,14.2-3.73,13.86-15.67,5.58-23.11-.47-5.66-1.51-5.58,7.9-4.88,11.21-9.89-2.71-2.6,6.69-8.89,7.76-4.06,1.32.29,7.6-4.06,8.86-6-1-5.12,4.63-6.67,8.24-6.65,1.51-14.48-11.1-4.84-12,6.27-1.11-4.47-6.38,1-8.75,13.84-10.41,6.88-31.74,20.41-42.14a4.23,4.23,0,0,1,.7,0Zm-248.13,11.64c-4.67,4.57,3.62,11.07,7,14.64,1.74,1.93,4.51,1.59,6.79,2.38,2.84,1.85,8.21,2.14,7-2.75-7.49-4-15-8-20.81-14.27Zm125.35,12.44c5,.2,6.33,17.24,9.2,23.08,9.44-1.56,6.21,11.8,12.84,15.61,3,8,12.45,4.5,15.49-2,2.7-3.94,10.14-6.84,11.74-.42,1,8.83,19.87,12.67,11,22.27-8.76,1.19-18.47-17.08-25.83-6-16.59-7.83-32.47-18-49.3-25.7-4.07,1.37-10.29-4.15-6.23-7.23,4.54-4.86,12-7.83,15.42-14.25,2.34-3.9,4.19-5.42,5.71-5.36Zm26.72.39c7.8.25,5.1,16.66,14.7,12,5,7.13-9.53,8.47-9.85,15.52-9.38-3.9-2.82-19.14-5.64-27.52a5.32,5.32,0,0,1,.79,0ZM591.73,1052c-2.81,4.44-7.82,3.28-12.28,2.63-3.44,2.7,2,14.93,5.28,8.15,7-2.76,8.47,6.82,14.91,6.24,3.17-3.37,14.83-6.63,7.68-12-6,1.81-10.81-5.18-15.59-5Zm55.9,16.28c-3.56,2.6-9.88,2.35-9.71,8.23-2,5.5-11.46-1.37-13.11,3.47,14-.36,24.48,15.18,38.56,10.14l6.38-.15c3.88-3.24-2.53-5.17-4.9-5.65-7.87-2.46-11.34-10.28-16.48-16l-.74-.08ZM599,1101.65c-6.41,8.58,6.3,12.72,13.37,12.13C608.18,1109.37,603.48,1105.6,599,1101.65Zm296.71,20.28c-2.66.11.54,8.81-3.46,10.34-.68,1.62,0,3.13.86,4.56,8.47-2.46,3.83-8.75,4.13-14.37a3.11,3.11,0,0,0-1.53-.53Zm-508.41,1.62a5.6,5.6,0,0,0-1.3.2c-1.69,4.09,3.15,6.45,6.57,5.58C393.81,1125.93,390.36,1123.45,387.25,1123.55Z"/><path id="path7509" class="cls-3" d="M540.85,686.69c-20.51,4-38,15.9-58.35,20.72-7.81,5.16-19.2,7.8-23.57,16.44-2.84,8.33-13.43,9.79-18.57,16.44-1.87,3.41-9.4,7.69-11.24,2,1.9-5.46,10.72-10.56,7.49-17.18-5.62.16-9.12,4.7-12.44,8.4-15.68,26.79-41.1,46.52-68.84,61.89-5.69,5.46,5.46.48,8.39-.29,16.49-3.88-13.49,13.68-2,11.89,5.7-6.25,14-9.27,19.36-15.66,2.13-1.52,8.16-4.44,5.73.31,3.91-6.52,12.27-8,18.87-11A9,9,0,0,0,418,789.92c13.88-6.15,20.24-20,32.07-28.55-.49-6.16-9.17,2-11-2.07,1.22-19.94,28.9-22.95,41.4-36.23,5-2.51,10.36-9,16.67-6.74,3.53-8.74,18-19.76,27.59-18,.57,1,1.13,2,1.72,3.08,3.79-2.52,8.8-1.9,9.44,2.87a6.26,6.26,0,0,1,4.56-.39c-.23-2.85-.09-8.26,4.45-6.22-.19,13.73,11.74-9.46,14.7,3.72,4.56,2.85,1,8.07,1.59,12.25,12.08-6.2,4.28-23.53-7.4-24.76a72.62,72.62,0,0,1-13-2.19Zm33.31,5.15c-1,0-2.09.07-3.15.16-.85,4.84-2.06,10.11.43,14.69,4.62-12,2.76,13.64,12.32,4.31-9.81-11.15,5.19-4.54,10.53.85,8.82-2.05-.82-11.86-4.82-14.82,8.64-3.37,10.56,7.21,15.39,11.64,6.74-1.61,12.16,7.65,19.73,7.54,3.18,6.67,8.49,13.63,17,14.3,2-5.89-10.43-8.7-5.35-12.78-9.39-2.66-8.79-14.25-16.46-18.12-15.46-1.61-30-8.1-45.63-7.77Zm-54.68,18.82c-2.91,15.85-16.14,26.66-26.57,38.15,18.15,10.34,26.13-15.35,36.3-23.15-10.36,1.2-2.13-11.21-9.73-15Zm34.74,12.08c-7,2.46-8.06,11.39-12.63,16.41-1.79,5.53-10.75,3.93-11.72,9.69,7,9.51,16.9-9,25.58-3.57-2.84,6-19.93,6.51-17.1,14.11-3.26,9.32-5.88,21.34-13.4,29.77-3,2.91-.35,7.48,2.85,9.13-.25-14.06,13-22.56,17.67-35.2,3-11.07,17.92-10.5,22-20.05-3.73-7-9.77-13-13.23-20.29ZM439.87,750.31c.1.61-3.28,11.89-3.52,17.24-9.56-.12-20.13,3.4-12.24,12.48-9.3-4.25-18.93-3.55-28.13,1.68,2-8.25,11.26-10.74,18.81-13,3.9-10,18-10.62,25.08-18.36ZM602.55,762.1c-1.87.2-3.08,2.14-2.7,7-5.58,5.78-17.36,21.87-1.29,20.17-1.53-9.33,6.13-16.21,15.51-17.65-2-4-8-9.93-11.52-9.54ZM547.2,776.89c-4.15-.18-12.28,8.69-13.21,13.3,2.88,4.34,1,11.5,8.42,7.9-5.54-3.19,1.57-22,6.92-14.09.82-5.08-.25-7-2.13-7.11Zm116.5,20.59c-4.23.47-1.09,5.13.11,7.22,12.28,8.14,19.49,21.36,31.63,29.54,5.24,11.86,20.1,17.67,22.69,32,10.64,9.39,17.92,22.58,31.81,29.32,8.6,9.21,25.59,3.31,31.51,15.47,4.29,4,8.72,13,15.8,9.43-4.11-9.24-4.37-20.06-12.69-26.89,1.12-7.12-7.15-10.93-13.06-7,3.57,7-7.9,4.67-8.84-.48-9.8-4-6.43-16-13.77-21-6.34,2.47-2.75,13.19-9.85,13.31-13.6-13.15-16.13-32.19-25.88-47.75-2.47,0-6.61.11-4.1,4.68-7.28,1.57-2.54-10.8-8.73-13.21-15.84-1.94-20.27-23.13-36.63-24.61Zm-66.87,27.93c-4.34,6.23-3.94,24.4,7.28,19.37,5.52-3.12,2.45,9.51,8.72,7.85-1.3-10.3-9.9-20.62-16-27.22Zm-200.59,8.65c-4.53,0-4.79,14.4-10.55,16.74-5.15,7.28-8.88-3.75-12.36-6.81-6.54,14.19-10.2,32.18-6.54,47.12,11.28,3.23,10.18-16.26,20.17-18,3.93-12.39,13.3-24,11.51-38.08a3.68,3.68,0,0,0-2.23-1ZM168,890a42.55,42.55,0,0,0-5.31,4.41c5.73,11.56-9.24,18.36-12.84,28,3.15,1.84,7.1-.42,10.41-1.07,1.78-3.84,3.36-7.77,5-11.65a28.3,28.3,0,0,1,8.4-8.41c8.6-7.64-3.63-3.86-5.66-11.31Zm83.08,24c-3.09.12-8.68,6.55-7.31,12.42-15.58,5.31-23.45,23.15-15.14,36.61.44,8.9,11.88,10.92,14.78,18.79.26,2.5,4.78,4.1,4.54.72,4.27-16.77-11.13-32.06.67-47.51a121.78,121.78,0,0,0,3.26-13c2-5.94,1.05-8.14-.8-8.06Zm390.72-3.37c-4.29.33-3.91,5.11,0,6.56,4.62,11.46,16.69,18.16,26.09,26,7.39,0,.79-6.79-2.45-8.28,2.69-12.07-14.44-17.13-22.72-24.3a7.05,7.05,0,0,0-.92,0Zm160,1.35a8.39,8.39,0,0,0-3.28.7c2.93,11.57,11.11,20.7,19.4,29.33,1.11,7.06,5.41,12.49,12.83,14.3,8,13.11,22,19.93,33.1,30.2,8.14.68,13.74,6.13,16.43,13,4,1.76,8.76,2.5,11.74,5.74,17.2,21.54,44.85,32.73,68.5,46.4,12.33,12.84,41.5.2,17.58-10.3-4.34,3.68-4.92-3.7-9.31-2.88-8.38-.08-6.55-18.74-16-13.33-5.65-16.62-29.88-18-43.18-32.41-3.29-2-9.05,6.29-9.28-.68,2.63-9.88-5.29-18.86-15.09-21.24-.28,13.81-8.15-3-11.17-6.54-5.79,6.09-9.3-.76-7.92-6.65-1.37-9-6,8.07-10.18,1.2-4.4-8.19-10-17.22-21.52-16-12.76.45-1.65-23.57-14-18.49-6.05-1.95-11.32-12.34-18.65-12.31ZM177.38,941.84a1.51,1.51,0,0,0-1,.57c-15.27,12.4-33.25,21.6-51.66,29.21-1.22,6.79-4.46,7.15-5.77,2.32.45,4.54.73,9.23,2.86,13.09-2.56-10.08,11.76-8.25,17.8-12.78,6.4-4.55,8.65,13.82,13.2,5.1,8.69,2.2,15.47,8.49,21.89,14.88l2.28.61c2.06-8.06-9.7-11.46-7.45-19.85a29.26,29.26,0,0,0-4.43-9.4c-5-9.66,14.22-12.56,14.86-21.92-.82-.6-1.63-1.89-2.58-1.83ZM119,973.94c-.14-1.45-.3-2.89-.55-4.28A18.21,18.21,0,0,0,119,973.94Zm596.41-20.42c-3.58,15.6,13.23,20,21.41,28.75,2.55-.09,3.67-2.65,5.38-4.07,13.89,10.85,21.2,25.16,34.88,36.62,9.07-2.44,17.89,8.67,25,10.77,1.92-7.87-1.37-16.48-11.36-14.39-7-11.08-13.75-24-28.43-26.79-2.15-5.74-4.27-11.26-9.13-15.55-5.76-2.82-8.55,1.58-11.39,5.12-9.22-5.47-14.25-20.15-26.31-20.46Zm82.77,25.38c-2.79.22-4.51,1.8-2.69,5.93,4.74,5,10.76,8.6,13.49,15.2,10.18,3.34,22.49,6.85,28.4,16.09,12.74,1.36,3.61-14.22-4.37-14.66-13.08-1.78-12.45-20.66-25.69-20.33a19.18,19.18,0,0,0-9.14-2.23Zm-231.25,6a20.31,20.31,0,0,0-6.78,1.12c8.77,9.11,9.54,23.32,19.59,31.46,13.92-.61,18.74,13.36,22,23.77,2.38,9.46,15.66,6.9,12.48-2.88-11.87-4.24-10.71-15.52-17.81-23.6-2.5-8.66-11.68-12.43-14-21.24l-1.34-1.79c-2.66-4.95-8.72-6.86-14.22-6.84Zm144.19,18.38a35.27,35.27,0,0,0-.91,5.21c.84,3.68,1.72,7.31,2.7,11,6.31,1.35,14.33,9.26,22.6,3.13-.05-7.74-5.5-4.87-10.28-3,.3-8.92-6.38-13.61-14.1-16.34Zm-29.2.85a5.86,5.86,0,0,0-3.56,1.62c10.76,7.64,16.88,19.35,29.14,25.44,4.1-1.43,3.62-6.82,1.7-9.68-5.63-3.91-8.62-14.6-16.58-10-3.14-2.48-6.62-7.63-10.69-7.42ZM662.93,1017c-2.52,12.58,16.45,22.11,20.67,34.42,4.53,17.29,22.84,11,12.7,2.74-13.55-10.48-19.91-27.2-33.37-37.16Zm-69.49,26a4.31,4.31,0,0,0-3.73,2.59c.64,4.21,3.37,7.62,5.56,11.21.2,8-7.67,13.64-11.19,20.41-.42-2-1.64-6.23-4.33-4.08-4,10.56-15.2,17.38-17.44,28.73,4.94-.67,12,.24,11.62-6.63l10.68-1.64,14.78,8.34,23,14-28.57-7.08-5.52,6.91L591,1105l-11.94,10-2.25,11.9-3,11.24,44.82-41.07c-2.89-5-3.8-15.14-11.88-13.67,4.25-6.79-3.36-11.89-10.53-10.17,1.51-4.61,5-8.33,7.43-12.48,4.68-7.6-7.94-9.54-7.06-17.25a8.88,8.88,0,0,0-3.17-.39Zm-8.83,50.59-1,1.44Zm29.23-33.25c-6.52,8.36,6.3,18.72,14.66,20.71C627.63,1072.31,621.44,1063.37,613.84,1060.43Zm-93.62,16.22c-11,.29-18,12-25,18.72-1.26,1.39-2.58,2.73-3.94,4-8.36,11-24.08,14.27-31.15,26.28-8.17,7.32-18.83,4.44-26.75-1.24-1.41-.13-2.81-.23-4.21-.35,5.26,6.1,15.29,20.27,22.68,10.34,17.92,3,21.15-20.16,37.16-19.87,8.18-4.51,15.26-11.22,16.88-20.43,7.54-3.59,1.53,5.31,1.13,8.72,7.93-1,7.11-12.57,13.16-15.11,6.18,8.27-1.88,14.77-5.65,21.86,12.67-2.89,21.87-15.64,24.12-26.75-6.74-2.37-10.8,5.83-16.82,4.36-.33-3.51-.59-7-.58-10.56Zm32.68,11.54c-8.52,8.54-18.73,19.51-28.77,28,9.06-7.75,13.53,10.15,21,1.68-3.44,0,1.14-4.72,1.11-6.84,2.14-12.62-9,9-12.75,2.18,8-6.53,23.84-13.36,19.43-25Zm23.88,17.36c-6.72,3.65-16,9.41-15.25,17.65,6.26,3.91,13.52-1.57,16.5-7l-1.25-10.66Z"/><g id="layer1"><path id="path12619" class="cls-4" d="M381.45,847.72C406,849.59,494,715.56,515,723c14.41,5.14,26.25,15.3,36.43,28.55,12.88,16.74,47,204.78,56.49,227.43,26.88,64.11-24.59-128.68,33-137.44,24.26-4,15.89,9.35,58.26,30.13,18,8.83,48.79,33.07,89.15,35C819,908.24,724.79,845,724.79,845,694.32,824.69,648,783.26,619.48,744.79c-1.79-1.9-6.52-32.33,7.21-25.76,36.92,17.65,123.64,89,126.88,84.73,4.75-6.21-118.34-95.88-118.89-100-2.38-17.71-19.38-14.58-31.39-24.43-27.23-22.33-73-18.32-105.52-4.81-20.6,8.55-28.12,63.46-41.42,82.38-10,14.26-21,22.56-32.33,35-22.91,25.22-31.69,7.33-73.89,45.12-28.55,25.55-85.4,83.55-83.09,104.77,1.11,10.16,33.18-48.08,62.93-41.14Z"/></g><g id="g7708"><path id="path7710" class="cls-5" d="M416.3,808.39c19.32,1.47,85.55-104.68,102-98.8A73.43,73.43,0,0,1,550,732.79C560.1,746,592.9,884.9,600.37,902.71c21.14,50.42-25.31-92.25,20-99.14,19.08-3.11,5-2.35,38.36,14,14.15,6.94,19,35.71,50.72,37.25,24.12,1.18-41-47.8-41-47.8-24-16-42.5-49.32-64.91-79.58-1.41-1.49-5.13-25.43,5.66-20.26,29.05,13.88,95.76,61,98.31,57.69,3.73-4.89-99.8-70.19-100.23-73.4-1.87-13.93-7-7.74-16.48-15.49-21.41-17.56-57.42-14.4-83-3.78-16.2,6.73-15.39,29.77-25.86,44.65-7.89,11.22-23.25,37.89-32.14,47.67-18,19.84-23.43,23.68-56.62,53.4-22.45,20.09-68.66,47.8-66.84,64.49.87,8,26.1-37.81,49.49-32.35Z"/></g><g id="g7698"><path id="path7522" class="cls-6" d="M351.26,86.48a20.79,20.79,0,0,0-16.59,8.37c-30.12-3.42-77.14,5.44-79.26,43.9-2.17-9.67-11.86-13.49-12.36-17.69-2.68-8-9.66-10.67-17.24-10.75h0a51.14,51.14,0,0,0-15.19,2.49c-9.58,6.68-6.57,22.68-17.59,27.71-15.87-16.7-47.54,2.15-39.47,24L153.37,175c-12.76.39-21.91,13.71-22,25.81,3,7.39-1.39,15.89,9.67,21.77,22.28.48,10,37.66,1.3,50.15,2.28,12.34-11.92,21.32,17.93,68,18.33,28.66,8.47,37.6,21.42,50.52,10.57,10.55,30,7.69,41.3,17.41,18.07,15.47,20.56,44.33,37.49,60.72,15.87,10.71,21.77,10.82,30.69,28.25,4.77,9.57,15.33,13.38,37,13.38h19.92l4.65,11.56c2.66,6.63,7.63,14.05,11.65,17.41,6,5,8.91,5.85,19.91,5.85,7.09,0,17.14-1.44,22.32-3.21l9.44-3.21,18,18c15.58,15.58,18.95,18,25.23,18,7.32,0,11.78,2.29,26.56,13.58,16.67,12.72,24.53,21.63,31.8,36,3.24,29.28.45,45.29,4.92,52.22,5.78,8.84,24.68,10,28.94,10.64,11.8,1.79,13.62,1.38,19.13-4.3,9.95-10.22,20.59-24.59,23.41-31.58,3.76-9.32,16.62-19.32,39.85-31,29.48-14.8,46-20.29,56.68-18.83a34.35,34.35,0,0,0,17.54-2.21c5.23-2.1,14.7-3.43,24.24-3.43,18.6,0,21.94-1.12,36.73-12.24,10.69-8,6.84-13.78,12.14-19.17,3-3,7.32-4.42,10.68-7,3.83-3,7.79-5.9,10.76-9.86a12.91,12.91,0,0,0,2.37-5.66c-1.83-2.13,0-4.51.84-6.6-2.51-22.47,13.92-2.69,27.53-16.37,4-4.88,7.55-10.78,5.57-17.47-3.22-10,11.64-14.19,10.32-24.6-2.15-2.22.36-4.1,1.94-5.65-1.91-19.07-15.64-41.19-36.22-45.36,1.92-22.77-28.42-19.53-34.94-35.38,3-16.89-2.21-38.14-20.46-43.62,6.24-15.11-3.12-31.11-18.84-34.31l-8.68-11.44c-3.35-7.35-12.16-9.33-16.11-16.19-5.22-9.26-14.53-18.68-26.27-15.15-6.49-4.91-16.54-11.86-20.5-.77C661,263,649,259.86,639,255.15c-6.24,6.09-15.34,1.34-22.54,5.84-5.81.11-7.11,13.38-12.59,6.5-12.66-5.73-18.65-18-29.21-26.29-6.65-2.54-13.75-1.16-20.3,1.06-2.16,1.44-6.28,3.45-4.75-2.49-3-17-22.27-15.19-34.88-16.56-13.61,11.3-4.49-18.58,4.36-9.27,3.6-7.7,1.51-26.2-10.13-21.77-.95-3.34-6.33-6.3-3.08-9.85,8.67-7.93,4.93-21.09,1.94-30.86-6.8-9.48-23.37-12.56-32-5-3.44-11.67-21.07-13.18-30.18-8-5.74-4.1-18.4-7.25-19.35,2.64-7.59,4.12-13.48-4.51-20.2-6.7,8.23-17.82-14.54-36.31-31.32-30.67-2-11.08-12.94-17.58-23.52-17.28Z"/><path id="path7527" class="cls-2" d="M353.93,83.68a20.81,20.81,0,0,0-16.6,8.37c-30.12-3.42-77.14,5.44-79.26,43.9,10.87-2.3,21.37-14.77,33.2-9-3.88,5.35-24.2,2.81-21.35,11.54,12.89-5.84,34.94-6.12,38,12.25-5.72-3.85-12.56-7.65-19.7-5.49-10,5.15,9.78,9,9,17.1,2.41,9,17.52,4.28,16.89,13.92,7.52,9-6.86.89-11.55-.5-5.07-3.49-11.91,12.55-4.34,8.52,5.67-4.76,16.7-2.75,20.72,2.79-7.87,4-13.84,11.55-16.84,20,1.6,3.47,7.92-4.94,10.94-6.16,9.14-8.57,21.71-3.27,31.25,1.05,2.74-5-4.93-11.05-7.38-15.09,3-2.14,10.24-.51,13.47,2.57,5.84,4,2.53-11.82,7.66-6,2.41,10.76,14.91,9.74,21.17,16.74-4.29,5-20.88-1.14-21.77,9.45,13.41-4.44,38.33-7.27,40.35,9.81-11.89-3.07-31.32-8.65-37.16,5.91,7.37,2.92,20.92-4,26.42,6.29,1.07,5.74,9.11,10.62,6.1.78C407,236.67,413.9,251,417.4,264.14c-11.32-6.25-26.07-8.54-36.84.66-1.17,7.86,9.71-3.76,14.24.38,18.86-2,30.7,14.72,46.45,20.57.94-.38,1.89-.77,2.84-1.19.06-2.69-.66-8,3.31-5.86,9.73,6,9.22-21.14,14.74-12.74,7.22,4.49,3,15.87,8.68,18,9-7.18,23.91-1.8,23.16,10.59-6.68.59-13.29,1.71-19.87,3-1.78,1.16-4.54,2.3-2.1,4.43,8.93-1.57,25.81-3.45,24.81,10.09-4,6.49,4.49,8.31,6.78,13.17,4.95-5.62,11.73,2,15.1-5.69a29.87,29.87,0,0,1,19.36,9.77c8.94-3.57-1.5-11.26-5.73-14.12-5.12-6.32-14.54-3.8-20.21-8.54,8.24-9.34,21.18,2.24,28.11,1-1.87-3.14-3.58-6.57-6.27-9a25.54,25.54,0,0,1-6.89-7.5c16.8-4,26,11.9,33.34,23.82,7.06,2.78,19.56.5,22,10.32-4.72,4.69-11.76-3.09-17.71-.22-3.63,1.42-7.56,3.72-8.4,7.82,1.55,8.75-13.86,3.94-10.08,13,7.9-.38,18-1.2,18.41,9-3.74,1.11-16.77-1-10.86,6.2,10.28-4.13,18.17,9.3,13.8,17.64-.62,2.09-2.2,6.7,1.6,5.69,6.09-8.42,5.66-21.12-2.29-27.7,8.68-3.64,11.75,8.27,13.55,14.27,4.14,9.72-7.79,15.57-9.75,23.34,6.85,1.23,23.15-3.23,25.69,7.89,13.35,3,8.85,21.09,2.06,27.75,14.45,2.23,37.17,6.31,40.15,24.6,6.12-2,12.66.32,18.78.82,7.9,6.7-1.77,23.33,10.32,27.63,7.62,4,9.36,12.87,9.43,20.83,12.16-8,28.15-7.83,41.75-7.89,6.39,7.56,11.67,15.08,18.39,22.4.87,5.06-4,14.36,2.47,17.07,12-10.77,17.2-31.43,8.55-47.15-5.34-9.67-19.26-9.62-26.64-13.73,11.91-2.1,19.78-11.79,27.73-20,8.61-14.94-8.44-35.69-24.71-29.49,6.38-10.93-4-22.37-15.78-18.92,9.21-9.42,6.91-24.68,12.84-35.56,3.09-12.91-12.55-13.23-21-14.6-9.69-2.65-18.55,2-27.52,4.77,15-15.91,44.39-15,60.23.25,6.2-7.07-8.25-19.58-6-26.59,10.53,7.65,16.29,23,16.7,36,6.65,6.46,17.16,9.23,21.55,17.66-.47,5.55,5.09,16.8,1.34,19.19-7.92-.37-14.62-6-22.47-5.86-1.59,9.64,17,3.57,12.2,15.91-4.16-1-15.39-13-19.3-5.54,8.72,5,15.28,12.72,21.7,20.2,14.79,2.6,16.55,21.81,18.69,33.34,5.9,1,9.91,1.82,8.62,9,12-2.21,1.48,13,9.78,14.33,4.35-4.61,3.54-11,3.76-16.78,9.47-1.23,2.18,16.29,11.76,14.76,5.23-1.1,6.17,5.84,7.12,9.37,1.28,8-1.59,15.48-3.52,23-7.62,11.6,16.15,2.95,20.76-2.25,4-4.89,7.55-10.79,5.57-17.47-3.22-10,11.64-14.2,10.33-24.61-2.16-2.22.35-4.1,1.93-5.65-1.91-19.07-15.63-41.19-36.21-45.35,1.91-22.77-28.43-19.54-35-35.39,3-16.89-2.21-38.14-20.46-43.62,6.24-15.11-3.12-31.11-18.84-34.31-11.32-3.54-23.09-6.19-34.72-2,2.28-12.53,18.54-7.08,26-9.43-3.35-7.35-12.16-9.33-16.11-16.19-5.22-9.26-14.53-18.68-26.27-15.14-6.49-4.92-16.53-11.87-20.5-.77-8.24-6.59-20.28-9.73-30.3-14.43-6.25,6.09-15.35,1.33-22.55,5.83-5.81.12-7.1,13.38-12.58,6.5-12.67-5.73-18.66-18-29.22-26.29-6.65-2.54-13.75-1.16-20.3,1.06-2.16,1.45-6.28,3.45-4.75-2.49-3-17-22.27-15.18-34.88-16.55-13.61,11.3-4.49-18.59,4.36-9.28,3.6-7.7,1.51-26.2-10.13-21.77-1-3.33-6.33-6.29-3.08-9.85,8.67-7.93,4.93-21.09,1.94-30.86-6.8-9.48-23.37-12.56-32-5-3.44-11.66-21.07-13.17-30.18-8-5.74-4.11-18.4-7.26-19.35,2.63-7.59,4.12-13.48-4.51-20.2-6.7,8.23-17.82-14.54-36.3-31.32-30.67-2-11.08-12.93-17.58-23.52-17.28Zm-10.08,9.65c14.19,1.75-.12,11.18-7.37,11.56C338.54,100.88,342.3,97.86,343.85,93.33ZM228.47,107.51A51.14,51.14,0,0,0,213.28,110c-9.58,6.68-6.57,22.68-17.59,27.72-15.86-16.7-47.54,2.14-39.47,24,.51-7.34,14.8-22.7,13.15-7.74,5.2-3.29,15.42-14.47,23.31-7.48-12.87,8.38-18.51,30.39-36.65,25.7-12.75.38-21.91,13.71-21.95,25.8,2.59,8.23,11.13-21.11,15.3-8.48-.81,3.61,2.05,8.79,5.27,5,2-7.65,11.86-6.78,15.93-12.75,7.42-6.88-.52,16.11,5.95,10,3.11-13.24,3.82-29.95,18.83-35.36,2.59-1.76,3.33-7.59,7.22-4.89,10.88,3.68,16.92-8.51,24.31-14-2.46-5-14.71,5.69-14.49-1.34,9.26-7,21.61-5.65,32.36-8.14,4.5-.93,7,7.46,10.78,3.49.8-6.68-9.43-6.67-9.83-13.21-2.68-8-9.66-10.66-17.24-10.75Zm121.47,20.72c6.56-.13,13.46,3.57,17.37,8.68,5.88,1.37,17-1.9,19.74,4.64-8.61-1.58-20.43,4.65-26.9,3.13a23.57,23.57,0,0,0-2.95-6.33c-4.36-3.5-11.73-4.47-15.7-7.32a14.52,14.52,0,0,1,8.44-2.8Zm31.8,35c7.42,0,11.79,5.63,14.43,11.9,16.36-10.12,30.42,9.43,25.29,25.11-4.17-5-8.92-10.79-16.15-10.44-5.75,4.92-9,3.13-3.32-2.91,8.59-4,3.28-5.11-4.25-3.29-6,7.23-13.61,8.29-10.51-4.14,1.8-7.86-5.83-10.71-7.89-16a15.68,15.68,0,0,1,2.4-.19ZM439.06,216c5.36.19,5.37,7,7.61,10.46,4.93,4,5.3-4.75,9-2.21,3.35,9.59-16.57,16.67-14.41,3.3,1-4.23-5.62-8.39-2.77-11.55ZM491,219c7.67,6.69-10.93,25.88-19.08,24.29C481.24,236.42,477,219.58,491,219Zm-205.29,9.24c-7.54.11-15,3.11-19.52,8.87-11.53-2.23-30.5,5.7-28.46,18.92,6.91-3.77,13.88-14.09,22.82-8.09-4.74,1.59-17.58,8-11.56,12.82,9.21-2.11,17.67-7.53,25.93-12.08,10.33-6.89,28.65-1.19,26.89,13.16-18-4.85-41.46-1.85-53.58,13.16,10.22-2.9,19.8-8.37,31-7.87,15.7-3.73,42.18-.67,51.24,17.25,3.15,7.35-1.1,14.53-1.79,21.87-2.87,12.67,9.68,14.4,7.78,2.24,10.31-20-5.71-42.46-25.88-47.18-2.29-14.83,24.37-16.21,31.78-8,0-17.25-23.78-27.45-35.22-14.15-4.27-7.44-12.86-11-21.41-10.9Zm-73.06,22.39a12.59,12.59,0,0,0-4.58,1c-8.55,2.09-15.86,10.62-17.26,19.21,6.14-.39,7.23-10.17,14.55-9.83,7.46-5.52,15.7,4.47,22.43.78-.53-6.59-8.2-11.31-15.14-11.12Zm284.64,6.58a4.88,4.88,0,0,1,.78.12c8.86-1.23,12.69,12.89,21,8.33,4.94.05,18.95-1.45,18.85,6.15a41.55,41.55,0,0,0-29.65,4.9c-.74-7.59-6.52-15.32-15.38-13.74-5.77-2,.34-6,4.4-5.76ZM387.85,295.08a14.25,14.25,0,0,0-5,.92c-11,6.56-27.33,5.75-33.15,19.26,6.69,6.29,11.07-7.21,18.34-5.61,4.53,1.26,9.1,2.62,13.85,2.69,1.92-2.21,1.92-7.82,5.95-4.7,6.82,2.86-8.14,6.32-2.55,10.37,10.94-2,18.27,6,26.57,11,.74,3.27,3.82,6,5.64,1.68,1.93-12.27-11-17.76-21-18.46,5.81-8.42,0-17.11-8.58-17.17Zm222.53,8.68c5.56,2.57,13.11,8.83,10.93,17.15,2.32,9.32,12.06-6.65,11,5.88-.09,7.18,7.57-1.88,9.45,4.37,5.07-3.33,8.56-9.21,14.6-10.94-5.52,5.29-6.3,16.92-15.81,16.43-2.19,2.2-2.71,5.49-4.42,8-9.62,3.65-.58-8.94-8-8.56-2.53,3.28-2.39,9.74-8.93,6.74-1.12-5.41,5.89-11.68,1.08-16-3.77-3.08-6.38,6.8-9.4,1.58-4.1-3.25,1.52-6.91,1.82-10.6,3.39-5-6.51-10.14-2.3-14.05ZM480.13,326.41c-9.26,9.18-22-3.29-30.2,6.54-4.77,5.15.09,11.87-.64,17.66,16.33-8.42,38.42-7.47,53.1,4.11,2.56-12.28-8.76-28.74-22.26-28.31Zm109.93,8.86c9.5.17,16.76,10.49,21,17.35-7.75-3.16-14.32-13.65-24.33-9.49-.4,4.13,11.52,9.93,5.69,13.62-5.68-3.71-11.47-7.22-18.32-8.5C571.66,340.49,581,337,587,335.56a13.14,13.14,0,0,1,3-.29Zm-173.23.09c-4.5.88-3.32,6.13-1.39,8.88,15,1.73,18.67,18.53,27.15,28.21,6.07.55-1.69-7,.56-9.61-.7-15.2-11.08-27.22-26.32-27.48Zm64.87,17a8.68,8.68,0,0,0-4.2.77c-2.72,2.19-11.11,8.76-6.72,11.57a18.66,18.66,0,0,1,17.55-5.06c4.29-4.53-1.67-7.18-6.63-7.28Zm168.05,8.11c12.24,4.89-7.48,20.86,5.49,21.86,9.9-3.55,7.59,9.23,4.53,14.18,1.18,5.6,12.81,10.54,12,.37,2.77-8.44,11.18-7,18.33-7.39-6.45,6.59-15.48,17.33-6.56,26.25,6,4.42.05,5.64-4.17,6.57-3.71,12.5,16.57,9.16,16.37,20.22-4,.58-7.27-1.63-10.91-2.49-5.15,7.36,21.32,15,8.2,19.31-8.75-3-17.41-16.47-27-9-.38,5.92-4.25,3.68-4.57-1-3.53-6.45,7.32-6.71,8.58-11.7-3.2-9.75-12.59-16.89-23.19-16.06-2.51-7.67,9.6-4.72,12.41-6.67-4.82-15.72-21.94-15-35-17.42-3.29-.27-5.49,8.59-7.16,3.7,3.47-9.29,14.15-12.81,23.3-11.08.89-7.11-10.74-11.05-6.58-18.35,3.9,1.26,6.24,9.58,10.68,9.05.12-7.1.51-14.62,5.2-20.4Zm-151.68,6.1a23.44,23.44,0,0,0-4.93.56c-4.21,1.33-14.88-1.72-14.35,5.23,5.18,3.74,14.69,1,15,10,6.73-3.56,17.39-1.17,16.8,6.81,8.62-6.79,23.71-5.93,31.19,3.44,1.56,2.65,1.54,9.12,6,7.32,4.27-18.66-14.89-30-31.13-25.68-5.18-4.61-11.57-7.71-18.56-7.65Zm-31,5.06a16.63,16.63,0,0,0-3.41.41c-3.05.8-9.71-.05-9.6,4.54-.37,6.37,13.11-.38,10.36,6.3-.43,5.49,8.53-.31,11.53,3.48,4.48.51,5.8,10.83,10.66,6.51,1.36-11.24-8.6-21.45-19.54-21.24Zm149.41,77.1a16.86,16.86,0,0,0-3.86.39c-3.22.61-7.77.56-8.59,4.54,7.29,3.14,16.64-1.27,22.79,4.95,1.64,2.76,2.49,8.78,6.9,7.39,2.78-10.32-7.93-17.19-17.24-17.27Zm64,18.06a29.45,29.45,0,0,1,3.08.14c5.94.11,12.45.05,17.84,3,4.78,9.78-13.69,3.61-10.55,10.24,8.25.87,1.84,14.15-3.43,6.61-4.28-6-20.33-19.73-6.94-20ZM786.6,510.66a9,9,0,0,0-4.78,1.18c15.45,5.49,22.4,30.47,8.62,41.36-2.91,3.59,2.4,5.46,4.2,2,2.82-4.12,7.79-5.91,10.76-9.87a12.87,12.87,0,0,0,2.37-5.65c-1.83-2.13,0-4.51.84-6.6,0-10.71-12.61-22.3-22-22.44Z"/></g></g></g></g></svg>